<svg width="28" height="28" viewBox="0 0 28 28" fill="none" xmlns="http://www.w3.org/2000/svg">
<path d="M15.8853 5.32C15.288 5.13333 14.6533 5.02133 14 5.02133C12.0773 5.02133 10.36 5.89867 9.20264 7.26133L12.1706 9.744L15.8853 5.32Z" fill="#1A73E8"/>
<path d="M9.20269 7.26133C8.28803 8.344 7.72803 9.76266 7.72803 11.2933C7.72803 12.4693 7.97069 13.4213 8.34403 14.28L12.152 9.76266L9.20269 7.26133Z" fill="#EA4335"/>
<path d="M14 8.88533C15.3253 8.88533 16.3893 9.94933 16.3893 11.2747C16.3893 11.872 16.184 12.4133 15.8293 12.824C15.8293 12.824 17.7147 10.5653 19.5627 8.38133C18.7973 6.92533 17.4907 5.80533 15.904 5.30133L12.1707 9.744C12.6 9.22133 13.2533 8.88533 14 8.88533Z" fill="#4285F4"/>
<path d="M14 13.6827C12.6747 13.6827 11.6107 12.6187 11.6107 11.2933C11.6107 10.7147 11.816 10.1733 12.1707 9.76266L8.36267 14.28C8.99734 15.7173 10.08 16.8747 11.2 18.3307L15.8293 12.824C15.4 13.3467 14.728 13.6827 14 13.6827Z" fill="#FBBC04"/>
<path d="M15.7361 19.8427C17.8267 16.576 20.2721 15.0827 20.2721 11.2933C20.2721 10.248 20.0107 9.27733 19.5627 8.4L11.2001 18.3307C11.5547 18.7973 11.9094 19.2827 12.2641 19.8427C13.5334 21.8027 13.1787 22.9787 14.0001 22.9787C14.8214 22.9787 14.4667 21.8027 15.7361 19.8427Z" fill="#34A853"/>
</svg>
